<svg xmlns="http://www.w3.org/2000/svg" viewBox="0 0 128 128" width="256px" height="256px"><path fill="#dfe8f4" d="M100,62H28c-3.3,0-6,2.7-6,6s2.7,6,6,6h1v10c0,19.3,15.7,35,35,35s35-15.7,35-35V74h1c3.3,0,6-2.7,6-6 S103.3,62,100,62z"/><path fill="#444b54" d="M109,68c0-5-4-9-9-9h-8V37C92,21.6,79.4,9,64,9S36,21.6,36,37v22h-8c-5,0-9,4-9,9s4,9,9,9c1.7,0,3-1.3,3-3 s-1.3-3-3-3c-1.7,0-3-1.3-3-3s1.3-3,3-3h72c1.7,0,3,1.3,3,3s-1.3,3-3,3H43c-1.7,0-3,1.3-3,3s1.3,3,3,3h53v7c0,17.6-14.4,32-32,32 s-32-14.4-32-32c0-1.7-1.3-3-3-3s-3,1.3-3,3c0,21,17,38,38,38s38-17,38-38v-7.2C106,75.9,109,72.3,109,68z M42,37 c0-12.1,9.9-22,22-22s22,9.9,22,22v22H42V37z"/><path fill="#444b54" d="M64,104c-1.7,0-3-1.3-3-3v-7c0-1.7,1.3-3,3-3s3,1.3,3,3v7C67,102.7,65.7,104,64,104z"/><path fill="#fff" d="M42.3 106.2c-.8 0-1.7-.3-2.2-1-5.2-5.9-8-13.4-8-21.2 0-1.7 1.3-3 3-3s3 1.3 3 3c0 6.3 2.3 12.5 6.5 17.2 1.1 1.2 1 3.1-.3 4.2C43.7 106 43 106.2 42.3 106.2zM54.2 114.3c-.3 0-.7-.1-1-.2-1.2-.4-2.3-.9-3.5-1.5-1.5-.7-2.1-2.5-1.3-4s2.5-2.1 4-1.3c.9.5 1.9.9 2.8 1.2 1.6.6 2.4 2.3 1.8 3.8C56.6 113.5 55.4 114.3 54.2 114.3z"/></svg>