<?xml version="1.0" encoding="UTF-8"?>
<svg xmlns="http://www.w3.org/2000/svg" xmlns:xlink="http://www.w3.org/1999/xlink" width="256pt" height="256pt" viewBox="0 0 256 256" version="1.1">
<g id="surface1462746">
<path style=" stroke:none;fill-rule:nonzero;fill:rgb(97.647059%,86.666667%,56.078431%);fill-opacity:1;" d="M 223.921875 126.71875 C 223.199219 75.160156 180.558594 33.558594 128 33.558594 C 127.039062 33.558594 126.078125 33.558594 125.078125 33.601562 C 122.199219 33.71875 119.359375 33.960938 116.519531 34.28125 C 117.519531 21.359375 127.71875 7.480469 127.71875 7.480469 C 128.839844 5.238281 126.28125 3.121094 124.078125 4.398438 C 106.640625 14.480469 32 45.839844 32 128 L 32 128.039062 C 32 180.199219 74.960938 222.480469 128 222.480469 C 129 222.480469 129.960938 222.480469 130.921875 222.441406 C 133.800781 222.320312 136.640625 222.078125 139.480469 221.761719 C 138.441406 234.679688 128.28125 248.519531 128.28125 248.519531 C 127.160156 250.761719 129.71875 252.878906 131.921875 251.601562 C 149.359375 241.519531 224 211.160156 224 128.039062 L 224 128 C 224 127.558594 223.960938 127.160156 223.921875 126.71875 Z M 128 156 C 112.519531 156 100 143.480469 100 128 C 100 112.519531 112.519531 100 128 100 C 143.480469 100 156 112.519531 156 128 C 156 143.480469 143.480469 156 128 156 Z M 128 156 "/>
<path style=" stroke:none;fill-rule:nonzero;fill:rgb(96.862745%,80%,56.078431%);fill-opacity:1;" d="M 224 128.039062 C 224 211.160156 149.359375 241.519531 131.921875 251.601562 C 129.71875 252.878906 127.160156 250.761719 128.28125 248.519531 C 128.28125 248.519531 138.441406 234.679688 139.480469 221.761719 C 136.640625 222.078125 133.800781 222.320312 130.921875 222.441406 C 131.039062 221.398438 131.199219 220.320312 131.320312 219.320312 C 179 213.71875 223.960938 177.199219 224 128.039062 Z M 224 128.039062 "/>
<path style=" stroke:none;fill-rule:nonzero;fill:rgb(97.647059%,89.019608%,68.235294%);fill-opacity:1;" d="M 127.71875 7.480469 C 127.71875 7.480469 117.519531 21.359375 116.519531 34.28125 C 119.359375 33.960938 122.199219 33.71875 125.078125 33.601562 C 124.960938 34.640625 124.839844 35.679688 124.71875 36.679688 C 77.039062 42.238281 32 78.839844 32 128 C 32 45.839844 106.640625 14.480469 124.078125 4.398438 C 126.28125 3.121094 128.839844 5.238281 127.71875 7.480469 Z M 127.71875 7.480469 "/>
<path style=" stroke:none;fill-rule:nonzero;fill:rgb(96.862745%,80%,56.078431%);fill-opacity:1;" d="M 128 76 C 99.238281 76 76 99.238281 76 128 C 76 156.761719 99.238281 180 128 180 C 156.761719 180 180 156.761719 180 128 C 180 99.238281 156.761719 76 128 76 Z M 128 156 C 112.519531 156 100 143.480469 100 128 C 100 112.519531 112.519531 100 128 100 C 143.480469 100 156 112.519531 156 128 C 156 143.480469 143.480469 156 128 156 Z M 128 156 "/>
<path style=" stroke:none;fill-rule:nonzero;fill:rgb(26.666667%,29.411765%,32.941176%);fill-opacity:1;" d="M 227.933594 126.660156 C 227.1875 73.109375 182.355469 29.542969 128 29.542969 C 125.863281 29.542969 123.648438 29.628906 121.3125 29.800781 C 123.808594 19.671875 130.867188 9.941406 130.953125 9.832031 C 131.085938 9.652344 131.199219 9.460938 131.300781 9.265625 C 132.578125 6.71875 132.054688 3.714844 130.003906 1.785156 C 127.851562 -0.238281 124.664062 -0.589844 122.074219 0.929688 C 120.511719 1.835938 118.480469 2.910156 116.074219 4.183594 C 91.984375 16.980469 28 50.960938 28 128.019531 C 28 182.320312 72.859375 226.5 128 226.5 C 130.152344 226.5 132.335938 226.414062 134.675781 226.242188 C 132.171875 236.355469 125.128906 246.054688 125.042969 246.167969 C 124.910156 246.347656 124.796875 246.539062 124.695312 246.734375 C 123.414062 249.28125 123.941406 252.285156 125.992188 254.214844 C 127.253906 255.398438 128.863281 256.003906 130.503906 256.003906 C 131.667969 256.003906 132.84375 255.699219 133.921875 255.070312 C 135.554688 254.128906 137.710938 252.992188 140.273438 251.65625 C 164.265625 239.058594 228 205.605469 228 128.050781 L 228 128.003906 C 228 127.675781 227.980469 127.355469 227.933594 126.660156 Z M 220 128.050781 C 220 200.773438 161.523438 231.464844 136.554688 244.566406 C 136.054688 244.832031 135.566406 245.089844 135.097656 245.335938 C 138.363281 239.777344 142.769531 230.839844 143.457031 222.074219 C 143.546875 220.878906 143.105469 219.707031 142.238281 218.878906 C 141.488281 218.160156 140.496094 217.765625 139.46875 217.765625 C 139.3125 217.765625 139.15625 217.773438 139.003906 217.792969 C 134.859375 218.277344 131.363281 218.503906 128.003906 218.503906 C 77.277344 218.503906 36.003906 177.914062 36.003906 128.007812 C 36 55.773438 94.738281 24.574219 119.824219 11.253906 C 120.183594 11.058594 120.539062 10.871094 120.882812 10.6875 C 117.613281 16.261719 113.210938 25.207031 112.539062 33.972656 C 112.449219 35.164062 112.894531 36.335938 113.761719 37.164062 C 114.621094 37.992188 115.820312 38.394531 117 38.246094 C 121.042969 37.777344 124.644531 37.542969 128 37.542969 C 178.007812 37.542969 219.246094 77.570312 219.933594 126.773438 C 219.9375 127.054688 219.957031 127.34375 220 128.019531 Z M 220 128.050781 "/>
<path style=" stroke:none;fill-rule:nonzero;fill:rgb(26.666667%,29.411765%,32.941176%);fill-opacity:1;" d="M 180 124 L 172 124 C 169.792969 124 168 125.789062 168 128 C 168 130.210938 169.792969 132 172 132 L 180 132 C 182.207031 132 184 130.210938 184 128 C 184 125.789062 182.207031 124 180 124 Z M 128 168 C 125.792969 168 124 169.789062 124 172 L 124 180 C 124 182.210938 125.792969 184 128 184 C 130.207031 184 132 182.210938 132 180 L 132 172 C 132 169.789062 130.207031 168 128 168 Z M 161.941406 156.285156 C 160.375 154.71875 157.847656 154.71875 156.285156 156.285156 C 154.71875 157.847656 154.71875 160.375 156.285156 161.941406 L 161.941406 167.597656 C 162.71875 168.375 163.742188 168.769531 164.769531 168.769531 C 165.792969 168.769531 166.816406 168.375 167.597656 167.597656 C 169.160156 166.03125 169.160156 163.503906 167.597656 161.941406 Z M 159.113281 100.886719 C 160.136719 100.886719 161.160156 100.496094 161.941406 99.714844 L 167.597656 94.058594 C 169.160156 92.496094 169.160156 89.96875 167.597656 88.402344 C 166.03125 86.839844 163.503906 86.839844 161.941406 88.402344 L 156.285156 94.058594 C 154.71875 95.625 154.71875 98.152344 156.285156 99.714844 C 157.066406 100.496094 158.089844 100.886719 159.113281 100.886719 Z M 177.710938 143.773438 L 170.296875 140.777344 C 168.242188 139.941406 165.914062 140.941406 165.089844 142.984375 C 164.261719 145.035156 165.253906 147.367188 167.300781 148.191406 L 174.714844 151.1875 C 175.207031 151.386719 175.714844 151.480469 176.210938 151.480469 C 177.796875 151.480469 179.296875 150.535156 179.925781 148.980469 C 180.746094 146.929688 179.761719 144.597656 177.710938 143.773438 Z M 148.871094 166.941406 C 148.007812 164.902344 145.664062 163.960938 143.625 164.820312 C 141.59375 165.6875 140.644531 168.035156 141.507812 170.066406 L 144.636719 177.433594 C 145.285156 178.957031 146.765625 179.867188 148.320312 179.867188 C 148.839844 179.867188 149.371094 179.769531 149.882812 179.550781 C 151.914062 178.683594 152.863281 176.335938 152 174.304688 Z M 164.820312 112.371094 C 165.46875 113.894531 166.949219 114.808594 168.503906 114.808594 C 169.023438 114.808594 169.554688 114.707031 170.0625 114.492188 L 177.429688 111.367188 C 179.460938 110.503906 180.410156 108.15625 179.546875 106.121094 C 178.683594 104.089844 176.332031 103.144531 174.304688 104 L 166.941406 107.125 C 164.90625 107.988281 163.957031 110.335938 164.820312 112.371094 Z M 160 128 C 160 110.355469 145.644531 96 128 96 C 110.355469 96 96 110.355469 96 128 C 96 145.644531 110.355469 160 128 160 C 145.644531 160 160 145.644531 160 128 Z M 128 152 C 114.765625 152 104 141.234375 104 128 C 104 114.765625 114.765625 104 128 104 C 141.234375 104 152 114.765625 152 128 C 152 141.234375 141.234375 152 128 152 Z M 128 152 "/>
<path style=" stroke:none;fill-rule:nonzero;fill:rgb(26.666667%,29.411765%,32.941176%);fill-opacity:1;" d="M 105.542969 170.433594 C 89.789062 162.085938 80 145.820312 80 128 C 80 105.839844 95.007812 86.671875 116.496094 81.386719 C 118.640625 80.859375 119.953125 78.695312 119.425781 76.546875 C 118.894531 74.402344 116.730469 73.074219 114.585938 73.625 C 89.511719 79.785156 72 102.148438 72 128 C 72 148.789062 83.417969 167.757812 101.800781 177.503906 C 102.394531 177.820312 103.039062 177.96875 103.667969 177.96875 C 105.101562 177.96875 106.488281 177.195312 107.203125 175.84375 C 108.238281 173.890625 107.5 171.46875 105.542969 170.433594 Z M 134.445312 80.429688 C 137.308594 80.8125 140.15625 81.460938 142.910156 82.355469 C 143.324219 82.488281 143.738281 82.550781 144.152344 82.550781 C 145.835938 82.550781 147.402344 81.476562 147.957031 79.792969 C 148.640625 77.691406 147.492188 75.433594 145.390625 74.746094 C 142.175781 73.699219 138.851562 72.945312 135.507812 72.5 C 133.332031 72.21875 131.308594 73.746094 131.011719 75.933594 C 130.714844 78.125 132.253906 80.136719 134.445312 80.429688 Z M 134.445312 80.429688 "/>
</g>
</svg>
